<svg width="59" height="16" viewBox="0 0 59 16" fill="none" xmlns="http://www.w3.org/2000/svg">
<path d="M6.35943 2.6151V15.7797H3.83349V2.6151H0V0H8.35047L9.53915 2.6151H6.35943Z" fill="#1A1A1A"/>
<path d="M10.7278 5.28963L13.1052 10.4901L15.9283 5.34907C15.9877 5.2302 16.1363 5.2302 16.1957 5.34907L19.0486 10.4901L21.4259 5.28963H24.1302L19.0188 15.8095L16.1066 9.06369L13.1646 15.8095L8.05328 5.28963H10.7278Z" fill="#1A1A1A"/>
<path d="M33.283 11.0844H26.1509C26.2104 11.8868 26.4778 12.5406 26.9533 13.0457C27.4287 13.5212 28.0231 13.759 28.766 13.759C29.3306 13.759 29.8061 13.6104 30.1924 13.3429C30.549 13.0755 30.9651 12.5703 31.4405 11.8273L33.3721 12.8972C33.075 13.4023 32.7481 13.8481 32.4212 14.2047C32.0943 14.5613 31.7377 14.8585 31.3514 15.0962C30.9651 15.334 30.549 15.5123 30.1033 15.6014C29.6575 15.6906 29.1821 15.75 28.6769 15.75C27.191 15.75 26.0023 15.2745 25.1108 14.3236C24.2193 13.3726 23.7736 12.0948 23.7736 10.5198C23.7736 8.9448 24.2193 7.66698 25.0811 6.71603C25.9726 5.76509 27.1316 5.28961 28.558 5.28961C30.0141 5.28961 31.1731 5.76509 32.0349 6.68631C32.867 7.60754 33.3127 8.88537 33.3127 10.5198L33.283 11.0844ZM30.9354 9.21226C30.6085 7.99386 29.8358 7.3698 28.6174 7.3698C28.35 7.3698 28.0825 7.39952 27.8448 7.48868C27.607 7.57783 27.3693 7.69669 27.191 7.84527C26.983 7.99386 26.8047 8.20188 26.6858 8.40989C26.5372 8.64763 26.4481 8.88537 26.3589 9.18254H30.9354V9.21226Z" fill="#1A1A1A"/>
<path d="M37.8 7.54811V15.7797H35.3632V7.54811H34.3231V5.28962H35.3632V2.64481H37.8V5.28962H38.959L39.9991 7.54811H37.8Z" fill="#1A1A1A"/>
<path d="M48.0523 5.97312V9.03397C47.5174 8.3802 47.0717 7.96416 46.6556 7.72642C46.2396 7.48869 45.7641 7.36982 45.1995 7.36982C44.3377 7.36982 43.6245 7.66699 43.0302 8.29104C42.4358 8.9151 42.1684 9.65803 42.1684 10.5793C42.1684 11.5005 42.4358 12.2731 43.0005 12.8675C43.5651 13.4618 44.2783 13.759 45.1401 13.759C45.7047 13.759 46.1802 13.6401 46.5962 13.4024C47.0123 13.1646 47.4877 12.7189 48.0523 12.0651V15.0962C47.1311 15.5717 46.1802 15.8094 45.2589 15.8094C43.7137 15.8094 42.4358 15.3043 41.3957 14.3236C40.3556 13.3132 39.8505 12.0651 39.8505 10.5793C39.8505 9.09341 40.3854 7.84529 41.4255 6.8052C42.4656 5.79482 43.7731 5.25992 45.2887 5.25992C46.2693 5.28964 47.1906 5.49765 48.0523 5.97312Z" fill="#1A1A1A"/>
<path d="M49.7462 2.64481H52.1236V6.38915C52.9556 5.64622 53.9066 5.25991 54.917 5.25991C56.0759 5.25991 56.9971 5.64622 57.6806 6.38915C58.275 7.04292 58.5721 8.08301 58.5721 9.50943V15.7797H56.1948V9.71745C56.1948 8.88538 56.0462 8.29104 55.749 7.93443C55.4519 7.57783 54.9764 7.3698 54.3523 7.3698C53.5203 7.3698 52.9556 7.63726 52.599 8.14245C52.2721 8.64764 52.0939 9.53915 52.0939 10.817V15.7797H49.7165V2.64481H49.7462Z" fill="#1A1A1A"/>
</svg>
